<?xml version="1.0" standalone="no"?>
<!DOCTYPE svg PUBLIC "-//W3C//DTD SVG 20010904//EN"
 "http://www.w3.org/TR/2001/REC-SVG-20010904/DTD/svg10.dtd">
<svg version="1.0" xmlns="http://www.w3.org/2000/svg"
 width="720.000000pt" height="720.000000pt" viewBox="0 0 720.000000 720.000000"
 preserveAspectRatio="xMidYMid meet">
<metadata>
Created by potrace 1.14, written by Peter Selinger 2001-2017
</metadata>
<g transform="translate(0.000000,720.000000) scale(0.100000,-0.100000)"
fill="#000000" stroke="none">
<path d="M5355 4659 c-27 -5 -72 -13 -100 -19 -63 -13 -213 -32 -243 -31 -13
0 -64 -8 -115 -18 -51 -11 -119 -22 -152 -26 -33 -3 -76 -10 -95 -14 -39 -10
-99 -19 -340 -56 -223 -34 -218 -33 -252 -66 -31 -29 -99 -48 -308 -84 -52 -9
-103 -19 -112 -22 -20 -5 -23 -34 -8 -64 7 -12 7 -19 1 -19 -15 0 -31 34 -31
65 0 52 -16 66 -68 60 -159 -19 -512 -75 -692 -110 -69 -13 -235 -45 -370 -70
-135 -25 -258 -52 -274 -60 l-30 -13 37 -7 c20 -4 44 -4 53 -1 10 4 26 -1 38
-13 15 -13 43 -21 94 -25 116 -11 263 -70 383 -153 36 -25 99 -122 99 -153 0
-6 11 -23 24 -37 13 -14 28 -42 32 -62 4 -20 8 -39 9 -43 2 -5 3 -23 4 -41 l1
-34 54 5 c59 5 58 6 71 -71 6 -36 8 -37 38 -33 67 11 80 11 87 -4 15 -29 29
-105 21 -113 -13 -13 -115 -26 -127 -16 -7 5 -15 30 -19 54 -6 44 -7 45 -43
45 -58 0 -66 -10 -51 -58 16 -56 8 -72 -39 -72 -32 0 -41 -5 -51 -26 -6 -14
-9 -29 -6 -34 3 -5 0 -10 -5 -12 -6 -2 -15 -23 -21 -47 -12 -54 1 -73 45 -67
17 3 83 12 146 21 63 9 162 23 220 32 58 9 124 18 148 21 46 4 72 29 72 69 0
27 35 53 72 53 34 0 48 24 48 84 0 25 5 56 11 69 11 25 57 57 82 57 28 0 39
26 28 67 -6 21 -13 75 -17 120 l-7 82 31 29 c27 25 31 37 34 87 4 77 24 92
136 103 103 10 122 2 137 -56 10 -45 36 -72 66 -72 21 0 32 -28 64 -167 29
-122 25 -118 101 -114 53 3 81 -24 90 -86 8 -52 28 -65 94 -56 39 6 45 3 74
-30 29 -34 33 -36 78 -30 26 3 46 9 43 13 -4 7 35 10 120 9 28 0 87 5 132 11
l82 12 7 34 c3 18 6 36 5 39 -1 3 6 19 14 36 22 42 7 57 -58 61 -47 3 -52 5
-55 28 -7 64 -11 70 -47 70 -18 0 -36 -4 -39 -9 -10 -16 6 -42 31 -52 25 -9
48 -53 37 -71 -4 -6 -23 -8 -44 -4 -21 3 -62 1 -91 -4 -65 -12 -80 -2 -85 61
-2 23 -5 44 -7 46 -2 1 -24 -1 -49 -5 -59 -12 -74 -2 -82 53 -7 44 -19 58 -29
33 -4 -8 -6 -9 -6 -2 -1 8 -16 10 -45 7 -50 -6 -44 -13 -64 82 -11 52 -2 60
74 69 70 8 80 1 86 -54 2 -27 8 -36 25 -38 14 -2 23 3 26 15 4 17 5 17 6 0 0
-10 7 -17 14 -14 8 3 11 20 9 52 -4 65 11 80 87 83 l60 2 7 -37 c5 -21 8 -45
8 -53 1 -25 124 -14 156 14 56 49 62 48 17 -4 -26 -30 -45 -61 -42 -68 3 -8 5
-23 5 -34 0 -18 6 -19 57 -16 57 3 58 3 64 -27 6 -30 6 -30 12 10 4 22 14 67
23 100 8 33 20 81 25 107 12 58 125 308 140 308 3 0 11 11 17 25 6 13 31 36
54 51 24 15 45 30 48 33 12 16 98 60 138 70 40 11 58 31 28 31 -16 0 -29 27
-20 41 3 5 10 7 15 4 16 -11 10 15 -12 44 -17 24 -19 32 -9 50 6 12 10 34 8
49 -3 25 -7 27 -48 29 -25 0 -67 -3 -95 -8z m100 -49 c8 -12 -16 -50 -32 -50
-15 0 -36 37 -28 50 8 13 52 13 60 0z m10 -120 c0 -20 -5 -25 -25 -25 -28 0
-41 32 -18 46 23 15 43 5 43 -21z m-1411 -195 c-7 -17 -20 -20 -28 -6 -4 5 0
12 6 14 23 9 28 7 22 -8z m-61 -12 c-7 -2 -19 -2 -25 0 -7 3 -2 5 12 5 14 0
19 -2 13 -5z m-50 -10 c-7 -2 -21 -2 -30 0 -10 3 -4 5 12 5 17 0 24 -2 18 -5z
m201 -110 c3 -40 4 -73 2 -73 -10 0 -38 151 -31 168 6 15 8 15 15 -3 4 -11 10
-53 14 -92z m65 -340 c1 -7 -3 -13 -8 -13 -10 0 -21 47 -12 55 6 6 19 -21 20
-42z m124 -89 c4 -21 10 -50 12 -64 2 -14 6 -33 10 -42 8 -19 -9 -25 -20 -7
-7 10 -35 135 -35 152 0 5 6 7 12 5 7 -3 17 -22 21 -44z m187 -190 c0 -13 7
-29 15 -38 20 -20 19 -38 -2 -34 -20 4 -57 103 -46 121 9 14 33 -22 33 -49z
m130 32 c0 -3 -4 -8 -10 -11 -5 -3 -10 -1 -10 4 0 6 5 11 10 11 6 0 10 -2 10
-4z"/>
<path d="M4688 3772 c-10 -2 -18 -8 -18 -13 0 -11 11 -11 30 1 18 11 11 18
-12 12z"/>
<path d="M4670 3728 c0 -22 10 -26 40 -17 21 6 22 7 5 8 -12 1 -26 6 -33 13
-9 9 -12 8 -12 -4z"/>
<path d="M2917 3446 c-4 -10 -5 -21 -2 -24 9 -9 17 6 13 25 -3 17 -4 17 -11
-1z"/>
</g>
</svg>
